<?xml version="1.0" encoding="iso-8859-1"?>
<!-- Generator: Adobe Illustrator 19.0.0, SVG Export Plug-In . SVG Version: 6.00 Build 0)  -->
<svg version="1.1" id="Capa_1" xmlns="http://www.w3.org/2000/svg" xmlns:xlink="http://www.w3.org/1999/xlink" x="0px" y="0px"
	 viewBox="0 0 512 512" style="enable-background:new 0 0 512 512;" xml:space="preserve">
<path style="fill:#2D2D30;" d="M512,94.872v322.256c0,10.529-8.538,19.067-19.078,19.067H19.078C8.538,436.195,0,427.657,0,417.128
	V94.872c0-10.529,8.538-19.067,19.078-19.067h473.845C503.462,75.805,512,84.343,512,94.872z"/>
<path style="fill:#D9CCBC;" d="M284.874,297.249v94.872c0,6.806-5.569,12.375-12.375,12.375H38.413
	c-6.806,0-12.375-5.569-12.375-12.375v-94.872c0-6.806,5.569-12.375,12.375-12.375h234.087
	C279.306,284.874,284.874,290.443,284.874,297.249z"/>
<path style="fill:#EBE5DD;" d="M284.874,297.249v94.872c0,6.806-5.569,12.375-12.375,12.375H63.162
	c-6.806,0-12.375-5.569-12.375-12.375v-94.872c0-6.806,5.569-12.375,12.375-12.375h209.337
	C279.306,284.874,284.874,290.443,284.874,297.249z"/>
<g>
	<path style="fill:#FFA733;" d="M230.57,117.817v98.131c0,8.848-7.249,16.097-16.097,16.097c-8.858,0-16.097-7.249-16.097-16.097
		v-98.131c0-8.848,7.239-16.097,16.097-16.097c1.567,0,3.083,0.227,4.527,0.66c2.609,0.763,4.95,2.186,6.837,4.073
		C228.755,109.371,230.57,113.393,230.57,117.817z"/>
	<path style="fill:#FFA733;" d="M293.134,117.817v98.131c0,8.848-7.249,16.097-16.097,16.097s-16.097-7.249-16.097-16.097v-98.131
		c0-8.848,7.249-16.097,16.097-16.097c1.567,0,3.083,0.227,4.527,0.66c2.609,0.763,4.95,2.186,6.837,4.073
		C291.319,109.371,293.134,113.393,293.134,117.817z"/>
</g>
<g>
	<path style="fill:#FFB655;" d="M230.57,117.817v97.069c-6.672-1.959-11.57-8.157-11.57-15.437v-97.069
		c2.609,0.763,4.95,2.186,6.837,4.073C228.755,109.371,230.57,113.393,230.57,117.817z"/>
	<path style="fill:#FFB655;" d="M293.134,117.817v97.069c-6.662-1.959-11.57-8.157-11.57-15.437v-97.069
		c2.609,0.763,4.95,2.186,6.837,4.073C291.319,109.371,293.134,113.393,293.134,117.817z"/>
</g>
<g>
	<path style="fill:#781900;" d="M476.794,114.094v27.791c0,6.806-5.569,12.375-12.375,12.375H336.043
		c-6.806,0-12.375-5.569-12.375-12.375v-27.791c0-6.806,5.569-12.375,12.375-12.375H464.42
		C471.226,101.719,476.794,107.288,476.794,114.094z"/>
	<path style="fill:#781900;" d="M476.794,191.879v27.791c0,6.806-5.569,12.375-12.375,12.375H336.043
		c-6.806,0-12.375-5.569-12.375-12.375v-27.791c0-6.806,5.569-12.375,12.375-12.375H464.42
		C471.226,179.504,476.794,185.073,476.794,191.879z"/>
</g>
<g>
	<path style="fill:#891C00;" d="M476.794,114.094v27.791c0,6.806-5.569,12.375-12.375,12.375H362.855
		c-6.806,0-12.375-5.569-12.375-12.375v-27.791c0-6.806,5.569-12.375,12.375-12.375H464.42
		C471.226,101.719,476.794,107.288,476.794,114.094z"/>
	<path style="fill:#891C00;" d="M476.794,191.879v27.791c0,6.806-5.569,12.375-12.375,12.375H362.855
		c-6.806,0-12.375-5.569-12.375-12.375v-27.791c0-6.806,5.569-12.375,12.375-12.375H464.42
		C471.226,179.504,476.794,185.073,476.794,191.879z"/>
</g>
<path style="fill:#5EAC24;" d="M443.95,292.732c0,5.63-2.908,11.117-8.105,14.117l-64.616,37.299l-9.508,5.496
	c-7.734,4.465-17.727,1.784-22.192-5.95c-4.465-7.734-1.784-17.716,5.95-22.182l74.124-42.796c7.734-4.465,17.716-1.794,22.182,5.94
	c1.052,1.825,1.712,3.764,1.99,5.744C443.898,291.175,443.95,291.959,443.95,292.732z"/>
<path style="fill:#7ED63E;" d="M443.95,292.732c0,5.63-2.908,11.117-8.105,14.117l-64.616,37.299
	c-0.938-6.394,2.011-13.035,7.93-16.448l64.616-37.299C443.898,291.175,443.95,291.959,443.95,292.732z"/>
<path style="fill:#5EAC24;" d="M490.138,334.816c0,2.454-0.567,4.95-1.743,7.28l-26.997,54.294l-0.526,1.062
	c-4.032,7.971-13.849,11.199-21.831,7.167c-7.971-4.032-11.189-13.849-7.167-21.821l27.534-55.366
	c4.032-7.971,13.849-11.189,21.821-7.167c1.134,0.567,2.166,1.258,3.094,2.042C488.045,325.432,490.138,330.062,490.138,334.816z"/>
<path style="fill:#7ED63E;" d="M490.138,334.816c0,2.454-0.567,4.95-1.743,7.28l-26.997,54.294
	c-5.651-4.723-7.549-12.931-4.084-19.779l27.008-54.304C488.045,325.432,490.138,330.062,490.138,334.816z"/>
<path style="fill:#830018;" d="M404.155,391.781c0,2.578-0.443,5.043-1.258,7.332c-3.021,8.549-11.168,14.664-20.748,14.664
	c-12.148,0-21.996-9.848-21.996-21.996c0-9.58,6.115-17.727,14.664-20.748c2.289-0.815,4.754-1.258,7.332-1.258
	C394.307,369.774,404.155,379.622,404.155,391.781z"/>
<g>
	<path style="fill:#A5001E;" d="M404.155,391.781c0,2.578-0.443,5.043-1.258,7.332c-2.3,0.815-4.764,1.258-7.342,1.258
		c-12.148,0-21.996-9.848-21.996-21.996c0-2.578,0.443-5.043,1.258-7.342c2.289-0.815,4.754-1.258,7.332-1.258
		C394.307,369.774,404.155,379.622,404.155,391.781z"/>
	<path style="fill:#A5001E;" d="M134.657,164.912c0,24.43-16.335,45.044-38.671,51.509c-4.744,1.382-9.766,2.114-14.953,2.114
		c-29.617,0-53.623-24.007-53.623-53.623s24.007-53.623,53.623-53.623c5.187,0,10.209,0.732,14.953,2.114
		C118.322,119.869,134.657,140.483,134.657,164.912z"/>
</g>
<path style="fill:#C70024;" d="M134.657,164.912c0,24.43-16.335,45.044-38.671,51.509c-22.336-6.466-38.671-27.08-38.671-51.509
	s16.334-45.044,38.671-51.509C118.322,119.869,134.657,140.483,134.657,164.912z"/>
<g>
	<path style="fill:#D9CCBC;" d="M219.92,351.249c1.115-10.623,7.276-33.563,39.514-36.618c2.963-0.28,5.441,2.409,5.025,5.437
		c-1.531,11.153-8.462,34.778-39.665,36.469C221.955,356.69,219.614,354.153,219.92,351.249z"/>
	<path style="fill:#D9CCBC;" d="M113.234,319.097c9.83,4.176,29.961,16.786,23.442,48.504c-0.599,2.914-3.896,4.497-6.67,3.213
		c-10.215-4.73-30.775-18.275-23.255-48.605C107.435,319.451,110.547,317.955,113.234,319.097z"/>
	<path style="fill:#D9CCBC;" d="M51.404,352.352c-0.665-8.711,0.853-28.016,25.77-34.722c2.289-0.617,4.63,1.226,4.743,3.722
		c0.414,9.193-1.61,29.152-25.91,34.621C53.796,356.471,51.586,354.734,51.404,352.352z"/>
	<path style="fill:#D9CCBC;" d="M169.076,346.524c8.686,0.933,27.392,5.943,29.444,31.666c0.189,2.364-2.049,4.329-4.524,3.985
		c-9.115-1.268-28.37-6.895-29.321-31.785C164.59,348.126,166.701,346.269,169.076,346.524z"/>
</g>
<path style="fill:#C70024;" d="M492.922,75.805H169.955h-11.22H19.078C8.538,75.805,0,84.343,0,94.872v155.519v11.218v155.519
	c0,10.529,8.538,19.067,19.078,19.067h292.785h11.218h169.843c10.539,0,19.078-8.539,19.078-19.067V261.609v-11.218V94.872
	C512,84.343,503.462,75.805,492.922,75.805z M496.532,94.872v150.048c0,1.848-1.497,3.345-3.345,3.345h-174.55
	c-0.172,0-0.343-0.009-0.515-0.026c-0.215-0.021-0.43-0.036-0.652-0.036c-0.211,0-0.428,0.015-0.639,0.035
	c-0.173,0.016-0.345,0.027-0.52,0.027H177.55c-3.021,0-5.471-2.449-5.471-5.471V94.618c0-1.848,1.497-3.345,3.345-3.345h317.498
	C494.913,91.273,496.532,92.892,496.532,94.872z M19.078,91.273h134.188c1.848,0,3.345,1.497,3.345,3.345v148.177
	c0,3.021-2.449,5.471-5.471,5.471H18.814c-1.848,0-3.345-1.497-3.345-3.345V94.872C15.468,92.892,17.087,91.273,19.078,91.273z
	 M15.468,417.128V267.079c0-1.848,1.497-3.345,3.345-3.345h285.453c3.021,0,5.471,2.449,5.471,5.471v148.177
	c0,1.848-1.497,3.345-3.345,3.345H19.078C17.087,420.727,15.468,419.108,15.468,417.128z M492.922,420.727H328.55
	c-1.848,0-3.345-1.497-3.345-3.345V269.205c0-3.021,2.449-5.471,5.471-5.471h162.511c1.848,0,3.345,1.497,3.345,3.345v150.048
	C496.532,419.108,494.913,420.727,492.922,420.727z"/>
<g>
</g>
<g>
</g>
<g>
</g>
<g>
</g>
<g>
</g>
<g>
</g>
<g>
</g>
<g>
</g>
<g>
</g>
<g>
</g>
<g>
</g>
<g>
</g>
<g>
</g>
<g>
</g>
<g>
</g>
</svg>
