<?xml version="1.0" encoding="iso-8859-1"?>
<!-- Generator: Adobe Illustrator 21.0.0, SVG Export Plug-In . SVG Version: 6.00 Build 0)  -->
<svg version="1.1" id="Capa_1" xmlns="http://www.w3.org/2000/svg" xmlns:xlink="http://www.w3.org/1999/xlink" x="0px" y="0px"
	 viewBox="0 0 512 512" style="enable-background:new 0 0 512 512;" xml:space="preserve">
<path style="fill:#F44545;" d="M453.317,383.094c-10.198,11.257-22.492,19.484-35.751,24.629
	c-32.359,12.584-70.465,6.816-97.937-18.093c-38.718-35.108-41.644-94.959-6.536-133.678c27.109-29.9,68.981-38.459,104.483-24.629
	c10.468,4.067,20.386,10.095,29.205,18.093C485.499,284.525,488.425,344.376,453.317,383.094z"/>
<path style="fill:#FB5858;" d="M453.317,383.094c-10.198,11.257-22.492,19.484-35.751,24.629
	c-10.478-4.067-20.397-10.095-29.215-18.093c-38.729-35.108-41.654-94.959-6.536-133.678c10.198-11.257,22.503-19.494,35.761-24.629
	c10.468,4.067,20.386,10.095,29.205,18.093C485.499,284.525,488.425,344.376,453.317,383.094z"/>
<path style="fill:#C8D2DC;" d="M212.054,219.849c-3.579,5.799-9.991,9.68-17.263,9.68H37.708c-5.571,0-10.644-2.282-14.317-5.955
	c-3.673-3.673-5.955-8.735-5.955-14.317c0-8.481,5.283-15.783,12.717-18.792c2.106-0.853,3.322-3.031,3.051-5.288
	c-2.6-21.654,14.445-40.578,35.637-40.628c0.761-0.002,1.411-0.529,1.555-1.277c6.031-31.292,35.226-53.541,67.977-49.869
	c30.968,3.496,55.038,29.775,55.038,61.688c0,9.487-2.129,18.467-5.935,26.501c-1.626,3.432,0.894,7.383,4.692,7.383h2.624
	C210.631,188.974,220.325,206.498,212.054,219.849z"/>
<path style="fill:#DCE6EB;" d="M213.715,216.512c-0.776,2.007-2.702,3.336-4.854,3.336H78.646c-5.571,0-10.644-2.282-14.317-5.955
	c-3.673-3.683-5.955-8.746-5.955-14.327c0-8.422,5.208-15.672,12.56-18.724c2.132-0.885,3.484-3.057,3.209-5.349
	c-0.17-1.415-0.258-2.854-0.258-4.312c0-20.054,16.257-36.311,36.311-36.311c0.301,0,0.602,0.01,0.903,0.021
	c2.842-16.663,12.335-31.074,25.644-40.385c1.083-0.757,2.429-1.022,3.736-0.829c29.948,4.422,52.933,30.228,52.933,61.414
	c0,9.487-2.129,18.467-5.935,26.501c-1.626,3.432,0.894,7.383,4.692,7.383c1.095,0.189,9.677-1.308,16.941,5.955
	C214.975,200.814,216.498,209.308,213.715,216.512z"/>
<path style="fill:#C8D2DC;" d="M419.485,134.507c-3.673,3.673-8.736,5.955-14.317,5.955H248.085
	c-17.879,0-27.114-21.802-14.317-34.599c3.683-3.673,8.746-5.955,14.317-5.955h2.706c3.804,0,6.227-3.966,4.6-7.405
	c-4.257-8.996-6.413-19.178-5.833-29.911c1.732-32.096,28.228-57.817,60.361-58.628c3.743-0.094,7.42,0.139,10.997,0.685
	c26.393,3.994,47.319,24.619,51.801,50.857c0.301-0.01,0.602-0.021,0.903-0.021c20.054,0,36.311,16.257,36.311,36.311
	c0,1.458-0.088,2.897-0.258,4.312c-0.275,2.291,1.077,4.462,3.209,5.346C426.22,106.983,429.747,124.245,419.485,134.507z"/>
<path style="fill:#DCE6EB;" d="M424.234,127.052c-0.743,2.046-2.701,3.399-4.876,3.399H292.323
	c-11.142,0-20.272-9.119-20.272-20.272c0-11.211,9.188-20.272,20.272-20.272h2.624c3.797,0,6.318-3.951,4.692-7.383
	c-3.806-8.037-5.936-17.022-5.936-26.501c0-20.529,9.966-38.731,25.32-50.036c1.197-0.882,2.699-1.23,4.16-0.953
	c25.317,4.801,45.18,24.989,49.533,50.471c0.301-0.01,0.602-0.021,0.903-0.021c21.863,0,38.634,19.132,36.053,40.623
	c-0.275,2.291,1.077,4.462,3.209,5.346C422.85,105.586,427.942,116.843,424.234,127.052z"/>
<path style="fill:#7E8B96;" d="M504.734,508.057H7.268c-7.19,0-10.001-9.337-4.005-13.311
	c35.658-23.55,110.262-75.04,164.003-127.39c22.005-21.434,40.503-43.003,51.417-62.86c7.76-14.12,22.586-22.887,38.697-22.887
	c9.482,0,18.508,3.04,25.916,8.435c5.229,3.787,9.648,8.735,12.854,14.608c10.624,19.452,28.416,40.555,49.581,61.543
	c53.181,52.766,127.629,104.867,163.038,128.584C514.724,498.762,511.902,508.057,504.734,508.057z"/>
<path style="fill:#A2ABB8;" d="M504.734,508.057H59.142c-7.19,0-10.001-9.337-4.005-13.311
	c35.658-23.55,110.262-75.04,164.003-127.39c22.005-21.434,40.503-43.003,51.417-62.86c3.185-5.799,7.563-10.696,12.74-14.452
	c5.229,3.787,9.648,8.735,12.854,14.608c10.624,19.452,28.416,40.555,49.581,61.543c53.181,52.766,127.629,104.867,163.038,128.584
	C514.724,498.762,511.902,508.057,504.734,508.057z"/>
<path style="fill:#DCE6EB;" d="M345.731,366.194l-1.899,0.27l-25.148,17.616c-2.697,1.888-6.287,1.888-8.974,0l-20.677-14.473
	c-2.687-1.888-6.277-1.888-8.974,0l-20.666,14.473c-2.687,1.888-6.277,1.888-8.974,0l-20.666-14.473
	c-2.687-1.888-6.277-1.888-8.974,0l-20.666,14.473c-2.687,1.878-6.277,1.878-8.974,0l-23.872-16.724
	c22.005-21.434,40.503-43.003,51.417-62.86c7.76-14.12,22.586-22.887,38.698-22.887c16.174,0,31.02,8.85,38.77,23.042
	C306.775,324.104,324.567,345.206,345.731,366.194z"/>
<path style="fill:#C8D2DC;" d="M257.381,281.609c9.482,0,18.508,3.04,25.916,8.435c-5.177,3.756-9.555,8.652-12.74,14.452
	c-10.914,19.857-29.412,41.426-51.417,62.86c-4.523,4.409-9.202,8.818-13.995,13.197l-5.032,3.527c-2.687,1.878-6.277,1.878-8.974,0
	l-23.872-16.724c22.005-21.434,40.503-43.003,51.417-62.86C226.444,290.376,241.269,281.609,257.381,281.609z"/>
<g>
</g>
<g>
</g>
<g>
</g>
<g>
</g>
<g>
</g>
<g>
</g>
<g>
</g>
<g>
</g>
<g>
</g>
<g>
</g>
<g>
</g>
<g>
</g>
<g>
</g>
<g>
</g>
<g>
</g>
</svg>
