<?xml version="1.0" encoding="iso-8859-1"?>
<!-- Generator: Adobe Illustrator 18.1.1, SVG Export Plug-In . SVG Version: 6.00 Build 0)  -->
<svg version="1.1" id="Capa_1" xmlns="http://www.w3.org/2000/svg" xmlns:xlink="http://www.w3.org/1999/xlink" x="0px" y="0px"
	 viewBox="0 0 42.938 42.938" style="enable-background:new 0 0 42.938 42.938;" xml:space="preserve">
<g>
	<path style="fill:#010002;" d="M41.816,24.826c-0.29-4.504-1.483-8.783-3.251-12.915c-0.525-1.227-1.002-2.48-1.614-3.663
		c-1.073-2.074-2.478-3.897-4.391-5.288c-1.283-0.933-2.729-1.447-4.278-1.724c-2.128-0.381-4.252-0.783-6.378-1.177
		c-0.027-0.005-0.053-0.015-0.078-0.026C21.784,0.015,21.627,0,21.477,0c-0.15,0-0.713,0.077-1.257,0.172
		c-0.45,0.078-0.899,0.158-1.347,0.245c-1.744,0.34-3.494,0.651-5.225,1.047c-2.379,0.544-4.185,1.984-5.702,3.83
		C6.758,6.74,5.819,8.342,5.114,10.069c-0.735,1.801-1.459,3.61-2.088,5.45c-1.06,3.097-1.74,6.279-1.903,9.56
		c-0.002,0.05-0.011,0.099-0.022,0.148c-0.018,0.081-0.032,0.574-0.032,1.1s0.044,1.39,0.1,1.93
		c0.031,0.324,0.067,0.649,0.111,0.974c0.664,4.926,3.046,8.692,7.54,10.972c1.599,0.811,3.334,1.289,5.063,1.753
		c2.407,0.646,4.853,0.931,7.353,0.977c0.175,0.003,0.35,0.005,0.525,0.005c4.188,0,8.18-0.929,11.994-2.576
		c3.528-1.525,5.915-4.232,7.167-7.891C41.77,29.99,41.984,27.428,41.816,24.826z M26.56,1.676c0.081-0.052,0.182-0.105,0.273-0.105
		c0.003,0,0.006,0,0.008,0c0.069,0.003,0.137,0.018,0.205,0.038c0.111,0.032,0.185,0.143,0.163,0.247
		c-0.014,0.066-0.032,0.129-0.069,0.178c-0.17,0.225-0.392,0.411-0.556,0.638c-0.142,0.197-0.246,0.425-0.345,0.649
		c-0.056,0.126-0.019,0.352-0.182,0.352c-0.02,0-0.043-0.003-0.07-0.011c-0.136-0.038-0.222-0.26-0.325-0.402
		c-0.011-0.015-0.008-0.04-0.005-0.093s0.047-0.492,0.301-0.891C26.104,2.049,26.302,1.844,26.56,1.676z M24.993,1.45
		c0.055-0.036,0.119-0.084,0.178-0.084c0.002,0,0.003,0,0.005,0c0.107,0.005,0.214,0.015,0.321,0.027
		c0.177,0.019,0.284,0.159,0.236,0.311c-0.03,0.094-0.064,0.185-0.119,0.261c-0.17,0.237-0.419,0.419-0.586,0.658
		c-0.17,0.245-0.28,0.532-0.419,0.799c-0.072,0.136-0.134,0.365-0.231,0.383c-0.024,0.004-0.047,0.006-0.069,0.006
		c-0.202,0-0.315-0.181-0.367-0.387c-0.009-0.034-0.013-0.069-0.017-0.106c-0.007-0.059,0.039-0.566,0.307-1.049
		C24.408,1.95,24.656,1.673,24.993,1.45z M23.179,1.209c0.089-0.086,0.202-0.148,0.321-0.205c0.114-0.054,0.276-0.1,0.415-0.1
		c0.094,0,0.177,0.021,0.228,0.075c0.072,0.077,0.088,0.181,0.035,0.309c-0.116,0.28-0.273,0.546-0.44,0.8
		c-0.327,0.498-0.621,0.993-0.57,1.63c0.017,0.208-0.094,0.334-0.247,0.334c-0.07,0-0.149-0.027-0.229-0.085
		c-0.156-0.113-0.307-0.33-0.327-0.514C22.27,2.582,22.547,1.817,23.179,1.209z M21.44,0.684c0.012,0,0.023,0.001,0.035,0.004
		c0.344,0.072,0.394,0.377,0.419,0.66c0.055,0.608-0.007,1.202-0.126,1.79c-0.055,0.272-0.152,0.409-0.251,0.409
		c-0.098,0-0.197-0.133-0.261-0.4c-0.138-0.579-0.222-1.165-0.195-1.768C21.078,1.001,21.251,0.684,21.44,0.684z M19.053,0.924
		c0.052,0,0.112,0.007,0.178,0.02c0.201,0.041,0.419,0.139,0.565,0.278c0.598,0.57,0.851,1.294,0.843,2.111
		c-0.001,0.131-0.046,0.269-0.099,0.392c-0.081,0.189-0.231,0.321-0.408,0.321c-0.042,0-0.086-0.008-0.131-0.023
		C19.936,4,19.89,3.922,19.849,3.833c-0.058-0.125-0.071-0.241-0.029-0.261c0.042-0.021-0.017-0.282-0.135-0.583
		c-0.071-0.182-0.146-0.361-0.234-0.535c-0.178-0.352-0.433-0.666-0.608-1.019C18.683,1.114,18.77,0.924,19.053,0.924z M17.39,1.344
		c0.023-0.001,0.046-0.001,0.07-0.001c0.157,0,0.326,0.022,0.453,0.094c0.408,0.236,0.69,0.554,0.881,0.949
		c0.24,0.497,0.231,1.056,0.165,1.177c-0.039,0.073-0.086,0.145-0.148,0.2c-0.07,0.063-0.142,0.093-0.205,0.093
		c-0.109,0-0.195-0.087-0.21-0.245c-0.052-0.539-0.367-0.909-0.717-1.274c-0.18-0.187-0.354-0.385-0.493-0.602
		C17.043,1.51,17.127,1.354,17.39,1.344z M15.873,1.598c0.03-0.014,0.071-0.02,0.119-0.02c0.104,0,0.236,0.031,0.346,0.087
		c0.099,0.05,0.192,0.103,0.273,0.171c0.386,0.324,0.628,0.75,0.693,1.248c0.022,0.167-0.047,0.385-0.151,0.521
		c-0.054,0.071-0.119,0.104-0.18,0.104c-0.096,0-0.183-0.082-0.202-0.224c-0.057-0.434-0.306-0.744-0.593-1.041
		c-0.134-0.138-0.268-0.279-0.377-0.436c-0.058-0.084-0.118-0.236-0.08-0.3C15.748,1.66,15.805,1.629,15.873,1.598z M8.209,8.569
		c0.57-1.432,1.358-2.725,2.611-3.664c1.066-0.799,2.198-1.225,3.404-1.225c0.619,0,1.257,0.112,1.916,0.344
		c1.441,0.506,2.946,0.731,4.46,0.858c0.347,0.029,0.692,0.043,1.036,0.043c1.757,0,3.475-0.361,5.148-0.901
		c0.688-0.222,1.343-0.33,1.969-0.33c1.518,0,2.862,0.636,4.065,1.829c1.379,1.368,2.084,3.113,2.538,4.962
		c0.62,2.527,0.847,5.094,0.607,7.69c-0.109,1.181-0.374,2.328-1.007,3.356c-0.746,1.213-1.839,1.828-3.26,1.901
		c-0.083,0.004-0.165,0.006-0.247,0.006c-0.935,0-1.83-0.26-2.743-0.403c-2.297-0.359-4.596-0.791-6.921-0.791
		c-0.133,0-0.267,0.001-0.4,0.004c-1.805,0.04-3.608,0.307-5.406,0.528c-1.156,0.142-2.299,0.394-3.451,0.576
		c-0.358,0.057-0.699,0.085-1.025,0.085c-2.056,0-3.462-1.124-4.134-3.31c-0.383-1.248-0.48-2.533-0.476-4.229
		C6.954,13.656,7.221,11.049,8.209,8.569z M2.541,20.277c0.048-0.124,0.119-0.25,0.21-0.346c0.706-0.748,1.562-1.119,2.558-1.119
		c0.103,0,0.207,0.004,0.312,0.012c0.131,0.01,0.265,0.063,0.383,0.125c0.267,0.139,0.461,0.512,0.32,0.703
		c-0.053,0.072-0.143,0.116-0.242,0.154c-0.085,0.032-0.165,0.048-0.223,0.048c-0.045,0-0.076-0.01-0.084-0.03
		c-0.004-0.011-0.024-0.016-0.056-0.016c-0.103,0-0.334,0.054-0.593,0.144c-0.206,0.072-0.41,0.149-0.603,0.247
		c-0.432,0.22-0.817,0.528-1.238,0.772c-0.152,0.088-0.325,0.21-0.496,0.21c-0.084,0-0.168-0.029-0.248-0.106
		C2.302,20.847,2.439,20.541,2.541,20.277z M2.438,22.911c0.071-0.476,0.327-0.84,0.686-1.134c0.512-0.419,1.079-0.697,1.722-0.851
		c0.349-0.084,0.719-0.11,0.983-0.11c0.142,0,0.253,0.008,0.312,0.019c0.099,0.018,0.203,0.045,0.294,0.095
		c0.193,0.103,0.39,0.288,0.475,0.484c0.155,0.361-0.002,0.598-0.363,0.598c-0.031,0-0.064-0.002-0.099-0.005
		c-0.082-0.009-0.162-0.013-0.241-0.013c-0.496,0-0.946,0.165-1.372,0.419c-0.378,0.226-0.735,0.486-1.109,0.719
		c-0.201,0.125-0.409,0.246-0.628,0.332c-0.117,0.046-0.221,0.069-0.31,0.069C2.509,23.533,2.379,23.31,2.438,22.911z M3.13,26.203
		c-0.092-0.038-0.151-0.157-0.206-0.296c-0.075-0.19-0.053-0.565,0.052-0.841c0.066-0.173,0.136-0.336,0.237-0.479
		c0.652-0.932,1.558-1.501,2.68-1.706c0.08-0.015,0.158-0.022,0.233-0.022c0.35,0,0.638,0.153,0.783,0.405
		c0.207,0.359,0.104,0.634-0.301,0.682c-0.684,0.081-1.203,0.436-1.666,0.906c-0.223,0.226-0.435,0.462-0.658,0.688
		c-0.159,0.161-0.308,0.346-0.498,0.458c-0.166,0.098-0.395,0.223-0.562,0.223C3.189,26.22,3.158,26.215,3.13,26.203z M4.41,30.594
		c-0.057,0.041-0.122,0.061-0.187,0.061c-0.107,0-0.211-0.054-0.275-0.153c-0.063-0.099-0.118-0.201-0.143-0.309
		c-0.181-0.795-0.057-1.578,0.192-2.341c0.354-1.084,0.923-2.038,1.751-2.832c0.625-0.6,1.365-0.896,2.216-0.896
		c0.042,0,0.085,0.001,0.128,0.002c0.133,0.005,0.264,0.02,0.378,0.081c0.19,0.102-0.192,0.432-0.629,0.77
		c-0.403,0.312-0.719,0.709-0.979,1.147c-0.588,0.99-1.092,2.03-1.624,3.052c-0.203,0.391-0.359,0.809-0.589,1.183
		C4.593,30.452,4.505,30.526,4.41,30.594z M8.606,28.048c-0.666,1.378-1.103,2.83-1.243,4.354c-0.061,0.663,0.006,1.337-0.024,2.004
		c-0.016,0.346-0.079,0.7-0.189,1.028c-0.107,0.315-0.3,0.462-0.559,0.462c-0.111,0-0.233-0.027-0.366-0.079
		c-0.537-0.211-0.775-0.65-0.867-1.173c-0.078-0.444-0.1-0.898-0.147-1.348c-0.018-2.776,1.06-5.094,2.902-7.099
		c0.607-0.661,1.344-1.146,2.182-1.464c0.172-0.065,0.37-0.082,0.56-0.082c0.033,0,0.066,0.001,0.099,0.001
		c0.08,0.002,0.172,0.131,0.227,0.221c0.017,0.028-0.051,0.145-0.106,0.177C9.881,25.746,9.184,26.851,8.606,28.048z M11.778,39.344
		c-0.033,0-0.067-0.001-0.101-0.003c-0.37-0.019-0.696-0.146-0.932-0.425c-0.232-0.274-0.471-0.562-0.624-0.883
		c-0.744-1.569-1.239-3.206-1.248-4.917c0.048-1.855,0.336-3.62,1.185-5.231c0.358-0.68,0.892-1.273,1.386-1.874
		c0.161-0.196,0.436-0.319,0.682-0.417c0.015-0.006,0.031-0.009,0.049-0.009c0.099,0,0.237,0.082,0.329,0.149
		c0.028,0.02-0.034,0.218-0.098,0.301c-0.779,1.002-1.093,2.18-1.243,3.404c-0.228,1.859-0.149,3.711,0.33,5.527
		c0.172,0.652,0.484,1.267,0.696,1.91c0.166,0.502,0.326,1.015,0.4,1.536C12.68,39.041,12.381,39.344,11.778,39.344z M15.486,38.859
		c-0.025,0-0.051,0-0.077-0.001c-0.5-0.018-0.928-0.219-1.19-0.624c-0.361-0.556-0.709-1.136-0.958-1.748
		c-0.684-1.677-0.977-3.214-0.935-4.957c0.031-1.53,0.385-3.423,1.248-5.196c0.41-0.843,0.965-1.592,1.684-2.198
		c0.204-0.171,0.486-0.293,0.75-0.337c0.02-0.003,0.04-0.005,0.059-0.005c0.222,0,0.331,0.223,0.194,0.388
		c-0.872,1.053-1.234,2.312-1.418,3.625c-0.319,2.272-0.182,4.524,0.463,6.73c0.177,0.606,0.491,1.17,0.692,1.771
		c0.171,0.512,0.324,1.042,0.384,1.575C16.458,38.546,16.13,38.859,15.486,38.859z M18.354,35.16
		c-0.066,0.314-0.297,0.474-0.609,0.474v-0.256l-0.01,0.002l0.01,0.254c-0.013,0-0.026,0-0.039-0.001
		c-0.538-0.024-0.957-0.284-1.167-0.757c-0.269-0.606-0.503-1.237-0.672-1.878c-0.687-2.618-0.182-5.075,1.094-7.407
		c0.38-0.694,0.914-1.271,1.552-1.737c0.182-0.133,0.423-0.197,0.647-0.256c0.006-0.002,0.012-0.002,0.018-0.002
		c0.068,0,0.17,0.082,0.225,0.146c0.028,0.032,0,0.155-0.043,0.198c-0.973,0.998-1.347,2.263-1.573,3.583
		c-0.27,1.576-0.3,3.159,0.031,4.73c0.158,0.752,0.393,1.487,0.563,2.236C18.429,34.702,18.4,34.944,18.354,35.16z M22.361,36.339
		c-0.153,0.422-0.401,0.845-0.71,1.169c-0.219,0.229-0.458,0.337-0.701,0.337c-0.27,0-0.544-0.135-0.793-0.387
		c-0.381-0.385-0.554-0.876-0.667-1.39c-0.251-1.143-0.213-2.3-0.108-3.452c0.263-2.908,0.92-5.741,1.692-8.55
		c0.009-0.032,0.02-0.063,0.032-0.094c0.02-0.051,0.055-0.094,0.077-0.094c0.023,0,0.142,0.437,0.266,0.974
		c0.095,0.411,0.188,0.823,0.275,1.236c0.51,2.441,0.926,4.897,0.975,7.398C22.719,34.451,22.693,35.423,22.361,36.339z
		 M25.141,35.129c-0.184,0.099-0.382,0.168-0.581,0.168c-0.142,0-0.285-0.035-0.423-0.119c-0.317-0.194-0.335-0.54-0.279-0.852
		c0.091-0.51,0.186-1.03,0.371-1.51c0.51-1.328,0.629-2.706,0.603-4.105c-0.02-1.078-0.157-2.143-0.484-3.177
		c-0.146-0.462-0.333-0.9-0.579-1.302c-0.288-0.471-0.561-0.951-0.399-1.023c0.037-0.016,0.075-0.024,0.115-0.024
		c0.062,0,0.127,0.019,0.193,0.056c0.254,0.142,0.505,0.304,0.719,0.499c1.159,1.058,1.717,2.442,2.111,3.917
		c0.557,2.089,0.363,4.127-0.398,6.126c-0.12,0.314-0.286,0.617-0.474,0.896C25.513,34.859,25.333,35.025,25.141,35.129z
		 M27.859,38.512c-0.292,0.315-0.659,0.433-1.053,0.433c-0.118,0-0.238-0.01-0.359-0.029c-0.415-0.065-0.664-0.422-0.606-0.922
		c0.044-0.379,0.147-0.755,0.257-1.122c0.091-0.302,0.21-0.601,0.354-0.882c1.139-2.225,1.407-4.616,1.348-7.067
		c-0.026-1.07-0.16-2.13-0.553-3.131c-0.201-0.511-0.508-0.981-0.761-1.472c-0.047-0.091-0.12-0.248-0.085-0.284
		c0.074-0.078,0.21-0.169,0.302-0.169c0.012,0,0.023,0.002,0.033,0.005c0.24,0.077,0.494,0.18,0.679,0.345
		c0.701,0.628,1.231,1.393,1.62,2.246c0.768,1.688,1.05,3.482,1.089,5.05c0.01,2.353-0.619,4.266-1.567,6.085
		C28.38,37.933,28.119,38.232,27.859,38.512z M32.075,38.354c-0.129,0.248-0.313,0.472-0.499,0.683
		c-0.124,0.142-0.28,0.274-0.448,0.356c-0.224,0.108-0.457,0.182-0.688,0.182c-0.196,0-0.389-0.053-0.571-0.184
		c-0.371-0.266-0.308-0.698-0.211-1.066c0.131-0.501,0.285-1.008,0.516-1.469c0.994-1.979,1.257-4.094,1.229-6.268
		c-0.014-1.082-0.149-2.15-0.552-3.16c-0.166-0.416-0.423-0.796-0.63-1.197c-0.05-0.097-0.115-0.288-0.087-0.307
		c0.092-0.062,0.228-0.136,0.328-0.136c0.02,0,0.039,0.003,0.056,0.01c0.234,0.098,0.469,0.236,0.648,0.414
		c0.68,0.68,1.199,1.472,1.545,2.373c0.552,1.433,0.79,2.922,0.81,4.417C33.527,34.942,32.94,36.688,32.075,38.354z M37.06,34.458
		c-0.041,0.268-0.089,0.555-0.151,0.84c-0.096,0.441-0.396,0.754-0.837,0.912c-0.122,0.044-0.235,0.066-0.338,0.066
		c-0.272,0-0.472-0.156-0.573-0.486c-0.095-0.309-0.145-0.643-0.152-0.967c-0.019-0.882,0.076-1.773-0.02-2.645
		c-0.212-1.925-0.806-3.737-1.88-5.369c-0.39-0.592-0.862-1.108-1.47-1.489c-0.072-0.045-0.166-0.174-0.146-0.218
		c0.04-0.09,0.15-0.207,0.232-0.208c0.016,0,0.031,0,0.047,0c0.196,0,0.403,0.018,0.58,0.091c0.742,0.304,1.404,0.744,1.951,1.331
		c1.417,1.518,2.367,3.284,2.721,5.341c0.053,0.309,0.077,0.624,0.097,0.976C37.153,33.175,37.13,33.992,37.06,34.458z
		 M38.628,30.826c-0.026,0.08-0.076,0.152-0.133,0.223c-0.054,0.067-0.14,0.102-0.227,0.102c-0.059,0-0.118-0.016-0.169-0.049
		c-0.082-0.052-0.156-0.109-0.198-0.184c-0.222-0.392-0.401-0.809-0.583-1.222c-0.278-0.631-0.512-1.284-0.822-1.899
		c-0.457-0.905-0.919-1.813-1.69-2.463c-0.422-0.356-0.762-0.744-0.538-0.829c0.099-0.037,0.207-0.047,0.316-0.047
		c0.037,0,0.075,0.001,0.112,0.003c0.72,0.029,1.393,0.223,1.932,0.723c1.407,1.305,2.162,2.909,2.142,4.845
		C38.767,30.296,38.71,30.571,38.628,30.826z M39.762,26.217c-0.056,0.359-0.191,0.547-0.391,0.547c-0.122,0-0.267-0.069-0.434-0.21
		c-0.351-0.298-0.654-0.654-0.966-0.996c-0.406-0.444-0.812-0.888-1.395-1.103c-0.231-0.085-0.472-0.141-0.706-0.218
		c-0.191-0.063-0.215-0.198-0.161-0.377c0.112-0.372,0.411-0.589,0.848-0.599c0.011,0,0.023,0,0.034,0
		c1.145,0,2.845,1.29,3.128,2.387c0.014,0.055,0.025,0.11,0.034,0.162c0.016,0.09,0.024,0.219,0.02,0.287
		C39.771,26.141,39.768,26.179,39.762,26.217z M40.159,23.978c-0.059,0.048-0.13,0.072-0.215,0.072c-0.076,0-0.164-0.02-0.262-0.06
		c-0.269-0.11-0.52-0.273-0.766-0.433c-0.389-0.253-0.759-0.536-1.152-0.783c-0.405-0.255-0.847-0.386-1.33-0.386
		c-0.03,0-0.061,0.001-0.091,0.002c-0.008,0-0.015,0-0.023,0c-0.167,0-0.418-0.056-0.456-0.151
		c-0.063-0.163-0.018-0.405,0.061-0.578c0.139-0.308,0.453-0.421,0.763-0.43c0.052-0.001,0.103-0.002,0.154-0.002
		c1.254,0,2.328,0.451,3.138,1.447c0.096,0.118,0.159,0.262,0.215,0.412C40.284,23.33,40.374,23.803,40.159,23.978z M40.06,21.681
		c-0.077,0-0.169-0.023-0.274-0.071c-0.265-0.121-0.507-0.295-0.753-0.456c-0.284-0.186-0.539-0.432-0.845-0.563
		c-0.376-0.16-0.792-0.224-1.188-0.339c-0.171-0.05-0.483-0.14-0.478-0.185c0.023-0.217,0.073-0.5,0.225-0.62
		c0.092-0.072,0.204-0.119,0.312-0.152c0.076-0.023,0.223-0.039,0.408-0.039c0.263,0,0.601,0.032,0.914,0.121
		c0.584,0.166,1.077,0.444,1.511,0.855c0.27,0.256,0.446,0.567,0.468,0.951C40.379,21.505,40.273,21.681,40.06,21.681z
		 M33.193,14.483c1.21,0.215,2.002,1.136,2.15,2.51c0.251,2.334-1.126,4.086-3.521,4.465c-0.353,0.056-0.7,0.085-1.042,0.085
		c-0.945,0-1.841-0.239-2.679-0.748c-0.081-0.136-0.177-0.29-0.298-0.481l-0.3-0.473l-0.197-0.311
		c-0.405-0.639-0.606-0.873-0.779-0.958c0.068-0.253,0.237-0.461,0.476-0.526c0.059-0.016,0.117-0.024,0.175-0.024
		c0.351,0,0.667,0.284,0.875,0.649c0.143,0.25,0.343,0.455,0.638,0.594c0.194,0.091,0.391,0.146,0.598,0.169
		c0.014,0.001,0.028,0.002,0.041,0.002c0.311,0,0.414-0.412,0.225-0.847c-0.152-0.35-0.048-0.508,0.256-0.508
		c0.09,0,0.197,0.013,0.32,0.04c0.204,0.045,0.406,0.066,0.607,0.066c0.579,0,1.143-0.179,1.703-0.509
		c0.163-0.096,0.311-0.233,0.431-0.379c0.303-0.369,0.284-0.772-0.068-1.09c-0.245-0.221-0.511-0.385-0.8-0.482
		c-0.148-0.05-0.26-0.071-0.333-0.071c-0.171,0-0.135,0.115,0.135,0.247c0.219,0.108,0.392,0.273,0.434,0.601
		c0.031,0.243-0.027,0.445-0.145,0.617c-0.052,0.077-0.1,0.111-0.146,0.111c-0.132,0-0.241-0.285-0.354-0.679
		c-0.046-0.161-0.118-0.296-0.216-0.406c-0.139-0.157-0.253-0.219-0.321-0.219c-0.111,0-0.099,0.166,0.122,0.36
		c0.204,0.178,0.337,0.404,0.276,0.767c-0.034,0.199-0.127,0.389-0.345,0.54c-0.156,0.108-0.302,0.148-0.396,0.148
		c-0.086,0-0.13-0.033-0.1-0.078c0.039-0.059,0.075-0.115,0.108-0.174c0.302-0.536,0.15-1.164-0.37-1.486
		c-0.03-0.019-0.067-0.026-0.108-0.026c-0.015,0-0.03,0.001-0.045,0.003c-0.086,0.01,0.077,0.233,0.306,0.526
		c0.133,0.17,0.21,0.362,0.127,0.631c-0.062,0.198-0.18,0.329-0.332,0.416c-0.046,0.026-0.082,0.038-0.111,0.038
		c-0.137,0-0.1-0.275-0.032-0.664c0.046-0.26-0.175-0.377-0.458-0.377c-0.229,0-0.499,0.076-0.703,0.215
		c-0.112,0.076-0.227,0.148-0.348,0.214c-0.147,0.08-0.27,0.115-0.361,0.115c-0.208,0-0.249-0.181-0.039-0.41
		c0.273-0.298,0.28-0.511,0.033-0.511c-0.026,0-0.054,0.002-0.085,0.007c-0.206,0.032-0.402,0.06-0.599,0.082
		c-0.085,0.01-0.175,0.018-0.263,0.018c-0.095,0-0.188-0.009-0.274-0.036c-0.141-0.044-0.339-0.176-0.352-0.288
		c-0.017-0.144,0.088-0.362,0.21-0.447c0.158-0.11,0.379-0.189,0.573-0.189c0.01,0,0.02,0.001,0.03,0.001
		c0.064,0.003,0.127,0.004,0.19,0.004c1.147,0,2.202-0.432,3.293-0.698c0.492-0.12,0.985-0.205,1.484-0.205
		C32.721,14.424,32.955,14.442,33.193,14.483z M8.842,20.328c-1.263-1.133-1.591-3.251-0.723-4.711
		c0.484-0.814,1.243-1.15,2.155-1.212c0.101-0.007,0.201-0.01,0.301-0.01c0.733,0,1.441,0.175,2.137,0.387
		C13.625,15.06,14.537,15.3,15.5,15.3c0.013,0,0.027,0,0.04,0c0.002,0,0.005,0,0.007,0c0.173,0,0.379,0.043,0.505,0.145
		c0.137,0.111,0.275,0.324,0.264,0.482c-0.007,0.11-0.261,0.291-0.405,0.291c0,0-0.001,0-0.002,0
		c-0.472-0.007-0.942-0.082-1.413-0.133c-0.041-0.005-0.081-0.015-0.148-0.031c-0.003-0.001-0.006-0.001-0.008-0.001
		c-0.06,0,0.124,0.254,0.425,0.582c0.219,0.24,0.182,0.429-0.028,0.429c-0.089,0-0.209-0.034-0.353-0.113
		c-0.118-0.064-0.23-0.134-0.339-0.208c-0.207-0.141-0.483-0.22-0.715-0.22c-0.278,0-0.493,0.114-0.452,0.37
		c0.063,0.391,0.1,0.671-0.035,0.671c-0.027,0-0.062-0.012-0.105-0.036c-0.148-0.084-0.264-0.213-0.329-0.4
		c-0.093-0.267-0.026-0.46,0.102-0.623c0.226-0.288,0.473-0.481,0.468-0.508c-0.005-0.023-0.06-0.038-0.132-0.038
		c-0.014,0-0.028,0.001-0.043,0.002c-0.061,0.005-0.118,0.015-0.159,0.046c-0.574,0.432-0.654,1.017-0.237,1.608
		c0.023,0.033,0.046,0.065,0.072,0.101c0.015,0.02-0.014,0.035-0.072,0.035c-0.101,0-0.287-0.045-0.482-0.18
		c-0.181-0.126-0.31-0.303-0.352-0.557c-0.059-0.352,0.07-0.575,0.269-0.75c0.215-0.189,0.22-0.357,0.11-0.357
		c-0.068,0-0.18,0.064-0.315,0.226c-0.093,0.112-0.163,0.249-0.209,0.405c-0.114,0.391-0.211,0.673-0.338,0.673
		c-0.046,0-0.095-0.036-0.15-0.115c-0.122-0.175-0.181-0.381-0.144-0.633c0.05-0.334,0.231-0.5,0.473-0.606
		c0.41-0.179,0.716-0.24,0.641-0.263c-0.058-0.018-0.096-0.029-0.134-0.029c-0.002,0-0.003,0-0.005,0
		c-0.538,0.013-1.023,0.189-1.444,0.521c-0.474,0.374-0.499,0.847-0.082,1.285c0.471,0.496,1.265,0.77,2.025,0.77
		c0.444,0,0.876-0.093,1.227-0.29c0.048-0.027,0.097-0.054,0.159-0.073c0.003-0.002,0.006-0.002,0.009-0.002
		c0.077,0,0,0.35-0.185,0.774c-0.164,0.376,0.038,0.836,0.42,0.836c0.065,0,0.136-0.013,0.211-0.043
		c0.277-0.11,0.527-0.318,0.739-0.618c0.28-0.397,0.661-0.723,1.031-0.723c0.05,0,0.101,0.006,0.151,0.019
		c0.234,0.06,0.403,0.261,0.474,0.509c-0.16,0.094-0.342,0.339-0.747,0.979l-0.5,0.79c-0.11,0.173-0.2,0.317-0.279,0.448
		c-0.817,0.509-1.808,0.769-2.799,0.769C10.952,21.516,9.724,21.121,8.842,20.328z M27.066,7.721c-0.062,0-0.126-0.003-0.191-0.009
		c-0.119-0.011-0.235-0.017-0.349-0.017c-0.129,0-0.242,0.03-0.364,0.044c-0.379,0.158-0.766,0.299-1.165,0.416
		c-0.347,0.239-0.644,0.556-0.861,0.976c-0.611,1.182-0.281,2.643,0.778,3.451c0.49,0.373,1.075,0.557,1.659,0.557
		c0.686,0,1.372-0.254,1.9-0.755c0.506-0.48,0.787-1.075,0.843-1.769c0.045-0.557-0.066-1.058-0.311-1.512
		c-0.263-0.486-0.499-0.834-0.368-0.887c0.083-0.033,0.16-0.065,0.237-0.097c0.127-0.053,0.266-0.078,0.408-0.078
		c0.671,0,1.431,0.542,1.513,1.185c0.029,0.224-0.065,0.348-0.266,0.348c-0.029,0-0.061-0.003-0.095-0.008
		c-0.071-0.011-0.141-0.028-0.211-0.047c-0.011-0.003-0.021-0.004-0.03-0.004c-0.082,0-0.059,0.124,0.09,0.271
		c0.101,0.1,0.211,0.187,0.329,0.26c0.091,0.056,0.178,0.083,0.256,0.083c0.154,0,0.272-0.108,0.315-0.316
		c0.07-0.338,0.097-0.696,0.073-1.041c-0.044-0.611-0.43-0.957-1.047-0.994c-0.081-0.005-0.162-0.006-0.246-0.006
		c-0.034,0-0.069,0-0.104,0.001c-0.003,0-0.006,0-0.009,0c-0.187,0-0.271-0.064-0.187-0.143c0.053-0.05,0.104-0.098,0.157-0.142
		c0.37-0.315,0.753-0.466,1.103-0.466c0.589,0,1.081,0.43,1.248,1.23c0.121,0.579,0.149,1.197,0.101,1.788
		c-0.049,0.611-0.401,0.949-0.871,0.949c-0.2,0-0.422-0.061-0.651-0.189c-0.185-0.103-0.36-0.241-0.508-0.393
		c-0.081-0.084-0.153-0.178-0.223-0.275c-0.02-0.027-0.04-0.04-0.06-0.04c-0.097,0-0.181,0.302-0.069,0.745
		c0.211,0.829,0.781,1.515,1.573,1.826c0.277,0.109,0.551,0.162,0.812,0.162c0.683,0,1.283-0.364,1.655-1.044
		c0.343-0.627,0.467-1.306,0.36-2.007c-0.201-1.322-1.015-2.225-2.109-2.896c-0.503-0.308-1.024-0.492-1.56-0.492
		c-0.367,0-0.741,0.086-1.122,0.277c-0.001,0.001-0.003,0.001-0.004,0.001c-0.006,0-0.014-0.004-0.023-0.009
		c-0.014-0.008,0.015-0.19,0.064-0.408c0.029-0.132,0.055-0.265,0.066-0.398C29.646,5.324,29.315,5,28.747,4.975
		c-0.03-0.001-0.059-0.002-0.087-0.002c-0.52,0-0.785,0.234-0.823,0.709c0.067,0.137,0.105,0.278,0.106,0.426
		c0.001,0.11-0.022,0.251-0.091,0.405c0.002,0.23,0.003,0.46,0.002,0.696C27.852,7.552,27.521,7.721,27.066,7.721z M28.647,10.399
		c-0.001,1.16-0.933,2.096-2.089,2.097c-0.001,0-0.002,0-0.002,0c-1.148,0-2.096-0.944-2.099-2.092
		c-0.003-1.166,0.939-2.112,2.1-2.112c0.004,0,0.008,0,0.013,0C27.723,8.298,28.648,9.237,28.647,10.399z M26.557,12.246
		l-0.001,0.25L26.557,12.246L26.557,12.246z M10.74,12.789c0.106,0,0.214-0.008,0.326-0.023c1-0.138,1.825-0.973,2.077-1.969
		c0.124-0.491,0.034-0.863-0.016-0.863c-0.005,0-0.009,0.003-0.013,0.009c-0.028,0.048-0.055,0.092-0.084,0.135
		c-0.292,0.426-0.669,0.739-1.184,0.851c-0.083,0.018-0.163,0.027-0.24,0.027c-0.361,0-0.648-0.197-0.752-0.577
		c-0.255-0.934-0.212-1.868,0.219-2.745c0.207-0.421,0.602-0.644,1.026-0.644c0.096,0,0.193,0.011,0.289,0.034
		c0.23,0.055,0.433,0.151,0.62,0.279c0.31,0.212,0.344,0.449,0.144,0.449c-0.001,0-0.002,0-0.002,0
		c-0.034,0-0.068-0.001-0.101-0.001c-0.089,0-0.177,0.001-0.265,0.006c-0.532,0.028-0.903,0.3-0.98,0.817
		c-0.057,0.383-0.032,0.79,0.031,1.175c0.036,0.223,0.165,0.34,0.332,0.34c0.087,0,0.185-0.032,0.285-0.096
		c0.117-0.075,0.226-0.164,0.332-0.256c0.165-0.143,0.228-0.275,0.155-0.275c-0.005,0-0.01,0.001-0.015,0.002
		c-0.062,0.012-0.117,0.03-0.174,0.034c-0.069,0.005-0.15,0.013-0.226,0.013c-0.088,0-0.168-0.012-0.211-0.055
		c-0.078-0.079-0.067-0.299-0.022-0.432c0.06-0.176,0.169-0.349,0.295-0.488c0.313-0.346,0.633-0.513,1.028-0.513
		c0.005,0,0.01,0,0.015,0c0.552,0.006,0.697,0.613,0.459,1.111c-0.588,1.231-0.466,2.244,0.358,3.112
		c0.54,0.569,1.267,0.865,2.003,0.865c0.498,0,1-0.135,1.451-0.413c1.097-0.675,1.571-2.038,1.134-3.264
		c-0.218-0.611-0.606-1.086-1.159-1.419c-0.064-0.038-0.13-0.052-0.194-0.085c-0.259-0.081-0.518-0.167-0.777-0.253
		c-0.138-0.022-0.274-0.056-0.415-0.056c-0.118,0-0.237,0.008-0.357,0.022c-0.12,0.015-0.233,0.023-0.337,0.023
		c-0.373,0-0.628-0.101-0.628-0.354c0-0.201,0-0.393,0.003-0.585c0.001-0.078,0.008-0.157,0.012-0.235
		c-0.074-0.161-0.099-0.31-0.097-0.426c0.002-0.113,0.028-0.256,0.103-0.412c-0.026-0.201-0.124-0.45-0.274-0.557
		c-0.17-0.121-0.356-0.174-0.545-0.174c-0.196,0-0.396,0.057-0.585,0.156c-0.341,0.178-0.391,0.51-0.344,0.854
		c0.015,0.108,0.037,0.215,0.059,0.314c0.03,0.132-0.12,0.212-0.359,0.212c-0.072,0-0.153-0.007-0.239-0.023
		c-0.172-0.031-0.344-0.054-0.514-0.054c-0.055,0-0.111,0.002-0.166,0.008c-1.505,0.151-3.017,1.479-3.405,2.947
		c-0.246,0.931-0.118,1.828,0.423,2.636C9.609,12.525,10.123,12.789,10.74,12.789z M16.461,8.265c0.014,0,0.028,0,0.042,0
		c1.179,0.024,2.088,0.971,2.066,2.153c-0.021,1.135-0.961,2.043-2.105,2.043h-0.001v-0.253c-0.005,0-0.01,0.001-0.015,0.002
		l0.015,0.251c-0.013,0-0.024,0-0.037,0c-1.163-0.021-2.081-0.993-2.049-2.172C14.405,9.17,15.342,8.265,16.461,8.265z
		 M27.38,20.582c-0.006-0.01-0.013-0.021-0.019-0.031c-0.159-0.251-0.318-0.502-0.478-0.753c-0.28-0.442-0.53-0.774-0.58-0.774
		c-0.003,0-0.005,0.001-0.006,0.003c-0.003,0.004-0.005,0.008-0.008,0.012c-0.014,0.021-0.028,0.041-0.039,0.063
		c-0.045,0.084-0.1,0.149-0.152,0.22c-0.277,0.373-0.647,0.572-1.1,0.572c-0.089,0-0.182-0.007-0.277-0.022
		c-1.073-0.165-1.881-0.737-2.393-1.705c-0.015-0.028-0.019-0.062-0.026-0.12c-0.005-0.04,0.035-0.06,0.101-0.06
		c0.047,0,0.106,0.01,0.173,0.03c0.109,0.033,0.203,0.069,0.272,0.131c0.069,0.063,0.117,0.148,0.16,0.239
		c0.068,0.144,0.142,0.27,0.167,0.278c0.001,0,0.002,0,0.002,0c0.027,0,0.106-0.141,0.178-0.322c0.051-0.13,0.086-0.253,0.051-0.352
		c-0.059-0.166-0.376-0.291-0.599-0.334c-0.153-0.029-0.31-0.037-0.469-0.037c-0.16,0-0.321,0.008-0.479,0.01
		c-0.622,0.009-1.245,0.004-1.863,0.057c-0.175,0.015-0.422,0.18-0.481,0.336c-0.052,0.137-0.021,0.259,0.052,0.37
		c0.028,0.042,0.058,0.06,0.093,0.06c0.112,0,0.264-0.191,0.491-0.358c0.08-0.059,0.159-0.082,0.231-0.082
		c0.197,0,0.339,0.174,0.288,0.27c-0.043,0.08-0.087,0.157-0.139,0.229c-0.448,0.616-1.046,1.031-1.773,1.251
		c-0.234,0.071-0.447,0.106-0.643,0.106c-0.466,0-0.834-0.215-1.156-0.632c-0.055-0.071-0.112-0.135-0.165-0.219
		c-0.01-0.016-0.023-0.031-0.036-0.045c0,0-0.001,0-0.001-0.001h-0.001c-0.035,0-0.285,0.353-0.572,0.806
		c-0.148,0.234-0.295,0.467-0.443,0.7c-0.019,0.03-0.038,0.061-0.057,0.091c-0.121,0.192-0.225,0.364-0.311,0.511
		c-0.123,0.211-0.202,0.362-0.191,0.376c0.014,0.018,0.094,0.029,0.193,0.029c0.028,0,0.057-0.001,0.086-0.003
		c0.084-0.005,0.166-0.014,0.245-0.036c0.774-0.213,1.547-0.434,2.317-0.664c0.903-0.269,1.664-0.761,2.266-1.49
		c0.079-0.095,0.156-0.192,0.234-0.29c0.025-0.031,0.051-0.045,0.076-0.045c0.107,0,0.203,0.261,0.15,0.666
		c-0.048,0.36-0.138,0.707-0.254,0.874c-0.05,0.072-0.121,0.129-0.199,0.184c-0.105,0.074-0.001,0.326,0.237,0.326
		c0.04,0,0.083-0.007,0.13-0.023c0.159-0.054,0.284-0.21,0.379-0.474c0.057-0.159,0.096-0.327,0.117-0.495s0.037-0.337,0.052-0.508
		c0.024-0.281,0.159-0.509,0.302-0.509c0.143,0,0.265,0.093,0.271,0.208c0.004,0.071,0.009,0.14,0.019,0.208
		c0.062,0.389,0.088,0.792,0.21,1.163c0.081,0.245,0.215,0.387,0.37,0.433c0.036,0.011,0.07,0.015,0.101,0.015
		c0.238,0,0.32-0.278,0.211-0.361c-0.079-0.059-0.15-0.123-0.189-0.203c-0.144-0.295-0.215-0.604-0.251-0.934
		c-0.055-0.499-0.014-0.873,0.027-0.873c0.003,0,0.006,0.002,0.009,0.006c0.038,0.051,0.059,0.078,0.077,0.106
		c0.565,0.85,1.273,1.545,2.252,1.885c0.876,0.304,1.771,0.554,2.661,0.815c0.092,0.027,0.189,0.038,0.287,0.045
		c0.037,0.003,0.074,0.004,0.108,0.004c0.112,0,0.199-0.014,0.212-0.035c0.009-0.015-0.055-0.141-0.159-0.322
		C27.637,20.997,27.517,20.799,27.38,20.582z M22.071,18.287c-0.032,0.049-0.064,0.091-0.098,0.093
		c-0.167,0.01-0.335,0.013-0.509,0.013c-0.01,0-0.02,0-0.03,0c-0.297,0-0.526-0.075-0.512-0.163
		c0.014-0.088,0.041-0.168,0.061-0.179c0.013-0.007,0.024-0.013,0.033-0.013c0.002,0,0.004,0,0.005,0.001
		c0.153,0.052,0.305,0.081,0.458,0.081c0.141,0,0.283-0.025,0.427-0.08c0.005-0.002,0.011-0.003,0.017-0.003
		c0.03,0,0.069,0.023,0.109,0.052C22.094,18.135,22.113,18.222,22.071,18.287z M15.687,6.361c-0.126-0.193-0.122-0.389,0.008-0.577
		c0.045-0.066,0.098-0.131,0.173-0.195c0.283-0.238,0.585-0.363,0.9-0.363c0.21,0,0.426,0.055,0.647,0.169
		c0.239,0.123,0.459,0.29,0.668,0.462c0.218,0.179,0.413,0.387,0.617,0.583c0.402,0.386,0.759,0.832,1.213,1.149
		c0.453,0.316,0.906,0.413,0.895,0.451c-0.006,0.021-0.1,0.032-0.244,0.032c-0.116,0-0.264-0.007-0.424-0.022
		c-0.218-0.02-0.433-0.049-0.641-0.105c-0.559-0.152-1.109-0.338-1.662-0.511c-0.307-0.097-0.618-0.182-0.923-0.284
		c-0.097-0.033-0.198-0.058-0.295-0.091c-0.289-0.099-0.556-0.308-0.787-0.518C15.766,6.481,15.727,6.421,15.687,6.361z
		 M22.418,8.102c-0.105-0.002-0.193-0.029-0.195-0.061c-0.003-0.032,0.414-0.1,0.825-0.377c0.245-0.165,0.463-0.374,0.679-0.586
		c0.396-0.388,0.778-0.791,1.188-1.164c0.215-0.195,0.462-0.37,0.72-0.503c0.209-0.108,0.42-0.16,0.625-0.16
		c0.325,0,0.637,0.131,0.914,0.38C27.24,5.69,27.283,5.75,27.325,5.81c0.132,0.19,0.14,0.382,0.019,0.573
		c-0.038,0.06-0.076,0.119-0.14,0.178c-0.205,0.19-0.44,0.362-0.69,0.484c-0.135,0.066-0.274,0.116-0.411,0.176
		c-0.445,0.194-0.897,0.361-1.36,0.491c-0.693,0.194-1.405,0.325-2.134,0.387c-0.046,0.004-0.093,0.005-0.139,0.005
		C22.453,8.104,22.436,8.104,22.418,8.102z M18.174,16.213c2.207,0,4.419,0,6.653,0c0.553,0,1,0.109,1,0.244
		c0,0.135-0.086,0.245-0.193,0.245c-0.067,0-0.131,0-0.195,0c-1.169,0-2.337,0-3.505,0c-1.461,0-2.921,0-4.381,0
		c-0.241,0-0.349,0-0.389-0.08C17.063,16.418,17.621,16.214,18.174,16.213z M24.792,13.874c0.059,0.296-0.112,0.474-0.359,0.578
		c-0.269,0.113-0.556,0.186-0.825,0.299c-0.175,0.074-0.347,0.153-0.52,0.234c-0.04,0.019-0.081,0.028-0.12,0.028
		c-0.243,0-0.448-0.333-0.24-0.76c0.236-0.484,0.713-0.775,1.354-0.775c0.049,0,0.099,0.002,0.15,0.005
		C24.494,13.5,24.731,13.573,24.792,13.874z M19.124,14.62c-0.229-0.095-0.486-0.156-0.674-0.304
		c-0.123-0.097-0.216-0.335-0.19-0.487c0.023-0.133,0.213-0.303,0.359-0.34c0.134-0.034,0.266-0.05,0.394-0.05
		c0.558,0,1.036,0.307,1.281,0.755c0.223,0.41-0.038,0.733-0.343,0.733c-0.056,0-0.114-0.011-0.17-0.034
		C19.563,14.803,19.343,14.713,19.124,14.62z"/>
</g>
<g>
</g>
<g>
</g>
<g>
</g>
<g>
</g>
<g>
</g>
<g>
</g>
<g>
</g>
<g>
</g>
<g>
</g>
<g>
</g>
<g>
</g>
<g>
</g>
<g>
</g>
<g>
</g>
<g>
</g>
</svg>
