<svg height="511pt" viewBox="0 1 511 511.99999" width="511pt" xmlns="http://www.w3.org/2000/svg"><path d="m122.070312 126.273438-14.914062-26.027344-.148438.085937c2.195313-1.324219 8.15625-6.128906 9.40625-12.324219.988282-4.902343-.953124-10.746093-5.769531-17.382812-10.425781-14.359375-14.003906-28.425781-10.636719-41.808594 4.808594-19.101562 21.984376-27.878906 23.925782-28.816406l13.042968 27.015625.175782-.089844c-.066406.035157-6.738282 3.636719-8.085938 9.34375-1.277344 5.40625 2.476563 12.082031 5.855469 16.734375 12.554687 17.296875 12.796875 32.085938 10.789063 41.445313-4.34375 20.253906-21.679688 30.699219-23.640626 31.824219zm0 0" fill="#dfcdbd"/><path d="m187.210938 126.273438-14.914063-26.027344-.148437.085937c2.191406-1.324219 8.152343-6.128906 9.402343-12.324219.988281-4.902343-.953125-10.746093-5.765625-17.382812-10.425781-14.359375-14.007812-28.425781-10.640625-41.808594 4.808594-19.101562 21.984375-27.878906 23.925781-28.816406l13.042969 27.015625.179688-.089844c-.066407.035157-6.738281 3.636719-8.089844 9.34375-1.277344 5.40625 2.480469 12.082031 5.855469 16.734375 12.554687 17.296875 12.796875 32.085938 10.792968 41.445313-4.34375 20.253906-21.679687 30.699219-23.640624 31.824219zm0 0" fill="#c8ad92"/><path d="m290.527344 172.21875v48.59375l-.292969.128906c-.648437 9.410156-2.359375 18.652344-5.109375 27.578125-4.160156 13.601563-10.707031 26.488281-19.496094 38.25-13.691406 18.328125-31.886718 32.746094-53.085937 42.125v38.046875h-114.261719v-38.046875c-21.1875-9.378906-39.398438-23.796875-53.085938-42.125-8.789062-11.761719-15.339843-24.648437-19.5-38.25-2.976562-9.6875-4.738281-19.746093-5.226562-29.996093-.113281-2.019532-.160156-4.050782-.160156-6.078126 0-.351562 0-.710937.007812-1.0625v-39.164062zm0 0" fill="#ff633d"/><path d="m290.527344 172.21875v48.59375l-.292969.128906c-.648437 9.410156-2.359375 18.652344-5.109375 27.578125-4.160156 13.601563-10.707031 26.488281-19.496094 38.25-13.691406 18.328125-31.886718 32.746094-53.085937 42.125v38.046875h-57.046875v-194.722656zm0 0" fill="#e70021"/><path d="m290.527344 218.523438v2.289062l-.292969.128906c-.648437 9.410156-2.359375 18.652344-5.109375 27.578125h-259.425781c-2.980469-9.6875-4.742188-19.746093-5.230469-29.996093zm0 0" fill="#ffaa20"/><path d="m290.527344 218.523438v2.289062l-.292969.128906c-.648437 9.410156-2.359375 18.652344-5.109375 27.578125h-129.628906v-29.996093zm0 0" fill="#ff8900"/><path d="m492.652344 131.730469v149.257812c0 47.394531-38.558594 85.953125-85.953125 85.953125h-5.152344c-47.394531 0-85.953125-38.558594-85.953125-85.953125v-149.257812zm0 0" fill="#009100"/><path d="m315.59375 176.117188h68.546875v29.996093h-68.546875zm0 0" fill="#6ecd24"/><path d="m315.59375 246.609375h68.546875v30h-68.546875zm0 0" fill="#6ecd24"/><path d="m492.652344 131.730469v149.257812c0 47.394531-38.558594 85.953125-85.953125 85.953125h-2.582031v-235.210937zm0 0" fill="#008300"/><path d="m30.054688 428.902344h125.742187v83.097656h-125.742187zm0 0" fill="#ffaa20"/><path d="m357.164062 428.902344h125.738282v83.097656h-125.738282zm0 0" fill="#ff8900"/><path d="m.5 352.921875h511.960938v105.980469h-511.960938zm0 0" fill="#ffc473"/><path d="m256.480469 352.921875h255.980469v105.980469h-255.980469zm0 0" fill="#ffb74f"/></svg>