<svg height="512pt" viewBox="0 -36 512 511" width="512pt" xmlns="http://www.w3.org/2000/svg"><path d="m29.558594 356.371094h125.75v83.101562h-125.75zm0 0" fill="#ffaa20"/><path d="m356.691406 356.371094h125.75v83.101562h-125.75zm0 0" fill="#ff8900"/><path d="m483.25 258.011719c-11.308594 19.597656-31.578125 31.296875-54.210938 31.296875h-188.917968c-22.632813 0-42.902344-11.699219-54.210938-31.296875-11.320312-19.589844-11.320312-42.992188 0-62.589844l94.460938-163.621094c11.320312-19.601562 31.578125-31.300781 54.207031-31.300781 22.632813 0 42.902344 11.699219 54.210937 31.300781l94.460938 163.621094c11.320312 19.597656 11.320312 43 0 62.589844zm0 0" fill="#f0e7df"/><path d="m269.578125 174.070312h130v115.238282h-130zm0 0" fill="#009100"/><path d="m483.25 258.011719c-11.308594 19.597656-31.578125 31.296875-54.210938 31.296875h-94.460937v-288.808594c22.632813 0 42.902344 11.699219 54.210937 31.300781l94.460938 163.621094c11.320312 19.597656 11.320312 43 0 62.589844zm0 0" fill="#dfcdbd"/><path d="m334.578125 174.070312h65v115.238282h-65zm0 0" fill="#008300"/><path d="m326.089844 258.011719c-11.308594 19.597656-31.578125 31.296875-54.210938 31.296875h-188.917968c-22.632813 0-42.902344-11.699219-54.210938-31.296875-11.320312-19.589844-11.320312-42.992188 0-62.589844l94.460938-163.621094c11.320312-19.601562 31.578124-31.300781 54.210937-31.300781 22.628906 0 42.898437 11.699219 54.207031 31.300781l94.460938 163.621094c11.320312 19.597656 11.320312 43 0 62.589844zm0 0" fill="#f0e7df"/><path d="m112.421875 174.070312h130v115.238282h-130zm0 0" fill="#009100"/><path d="m326.089844 258.011719c-11.308594 19.597656-31.578125 31.296875-54.210938 31.296875h-94.457031v-288.808594c22.628906 0 42.898437 11.699219 54.207031 31.300781l94.460938 163.621094c11.320312 19.597656 11.320312 43 0 62.589844zm0 0" fill="#dfcdbd"/><path d="m177.421875 174.070312h65v115.238282h-65zm0 0" fill="#008300"/><path d="m0 280.382812h512v105.988282h-512zm0 0" fill="#ffc473"/><path d="m256 280.382812h256v105.988282h-256zm0 0" fill="#ffb74f"/></svg>