<?xml version="1.0" encoding="iso-8859-1"?>
<!-- Generator: Adobe Illustrator 19.0.0, SVG Export Plug-In . SVG Version: 6.00 Build 0)  -->
<svg version="1.1" id="Capa_1" xmlns="http://www.w3.org/2000/svg" xmlns:xlink="http://www.w3.org/1999/xlink" x="0px" y="0px"
	 viewBox="0 0 512 512" style="enable-background:new 0 0 512 512;" xml:space="preserve">
<path style="fill:#E7E4CD;" d="M256,512c-68.38,0-132.668-26.628-181.019-74.981C26.628,388.668,0,324.38,0,256
	S26.628,123.332,74.981,74.981C123.332,26.628,187.62,0,256,0s132.668,26.628,181.019,74.981C485.372,123.332,512,187.62,512,256
	s-26.628,132.668-74.981,181.019C388.668,485.372,324.38,512,256,512z"/>
<path style="fill:#C1BDAB;" d="M256,480.928c-60.08,0-116.565-23.396-159.049-65.88S31.072,316.08,31.072,256
	s23.396-116.565,65.88-159.049s98.967-65.88,159.049-65.88s116.565,23.396,159.049,65.88S480.93,195.919,480.93,256
	s-23.396,116.565-65.88,159.049S316.08,480.928,256,480.928z"/>
<path style="fill:#ADA999;" d="M256,31.072c-60.08,0-116.565,23.396-159.049,65.88S31.072,195.92,31.072,256
	c0,45.239,13.27,88.437,37.961,125.157c36.72,24.69,79.917,37.961,125.157,37.961c60.08,0,116.565-23.396,159.049-65.88
	s65.88-98.967,65.88-159.049c0-45.239-13.27-88.437-37.961-125.157C344.437,44.342,301.239,31.072,256,31.072z"/>
<path style="fill:#8D663D;" d="M256,61.811C148.752,61.811,61.811,148.752,61.811,256c0,80.744,49.28,149.977,119.402,179.265
	l219.492-308.766C365.15,86.796,313.492,61.811,256,61.811z"/>
<path style="fill:#A57D48;" d="M133.924,307.509c0,49.117,18.244,93.967,48.314,128.166c22.744,9.347,47.648,14.514,73.762,14.514
	c107.248,0,194.189-86.941,194.189-194.189c0-49.117-19.413-95.302-49.484-129.501c-22.744-9.347-46.479-13.179-72.593-13.179
	C220.865,113.32,133.924,200.261,133.924,307.509z"/>
<path style="fill:#827061;" d="M352.739,317.1l-58.276-58.276c-7.617-1.529-14.11-0.457-18.211,3.643
	c-3.243,3.243-4.593,7.983-4.259,13.591l22.469,41.042c20.115,20.115,44.576,28.269,54.634,18.212
	C353.197,331.21,354.268,324.716,352.739,317.1z"/>
<path style="fill:#6D5B4D;" d="M374.592,295.246l-58.276-58.276c-7.617-1.529-14.11-0.457-18.211,3.643s-5.172,10.594-3.643,18.211
	c2.222,11.068,9.938,24.507,21.854,36.423c11.916,11.916,25.355,19.632,36.423,21.854c7.617,1.529,14.11,0.457,18.211-3.643
	S376.121,302.863,374.592,295.246z"/>
<path style="fill:#625143;" d="M396.446,273.393l-58.276-58.276c-7.617-1.529-14.11-0.457-18.211,3.643
	c-4.1,4.1-5.172,10.594-3.643,18.211c2.222,11.068,9.938,24.507,21.854,36.423c11.915,11.915,25.355,19.632,36.423,21.854
	c7.617,1.529,14.11,0.457,18.211-3.643C396.903,287.504,397.975,281.01,396.446,273.393z"/>
<g>
	<path style="fill:#584639;" d="M396.446,273.393c7.617,1.529,14.11,0.457,18.211-3.643c10.058-10.058,1.905-34.518-18.212-54.634
		c-20.115-20.115-44.576-28.269-54.634-18.212c-4.1,4.1-5.171,10.594-3.643,18.211c2.222,11.068,9.938,24.507,21.854,36.423
		C371.939,263.454,385.378,271.17,396.446,273.393z"/>
	<path style="fill:#584639;" d="M49.507,4.296C43.344-1.609,33.559-1.4,27.654,4.765c-5.905,6.164-5.696,15.948,0.469,21.853
		l154.752,148.258c2.205-7.704,5.25-15.061,9.024-21.97C124.216,82.264,49.587,4.372,49.507,4.296z"/>
	<path style="fill:#584639;" d="M4.296,28.122C-1.609,34.285-1.4,44.07,4.765,49.975l174.744,167.413
		c-0.643-5.386-0.895-10.889-0.714-16.485c0.14-4.304,0.538-8.544,1.172-12.71C109.558,114.702,26.233,27.735,26.149,27.654
		C19.984,21.748,10.201,21.958,4.296,28.122z"/>
</g>
<path style="fill:#C9AD80;" d="M234.711,258.461c-0.996,0-2.004-0.063-3.017-0.191c-7.87-0.989-14.93-5.564-18.887-12.239
	l-0.19-0.338c-7.416-14.068-11.284-30.538-10.61-45.185c0.969-21.097,9.796-41.008,24.852-56.064
	c15.056-15.056,34.967-23.883,56.065-24.852c19.165-0.876,37.546,4.511,53.134,15.596c3.124,2.221,7.329,1.895,10-0.776
	c1.636-1.636,2.432-3.809,2.241-6.117c-0.191-2.291-1.322-4.287-3.186-5.617c-18.039-12.875-39.322-19.297-61.542-18.576
	c-52.707,1.714-95.337,44.344-97.052,97.051c-0.408,12.552,1.475,24.857,5.597,36.576c1.417,4.026-0.699,8.436-4.724,9.853
	c-4.028,1.415-8.437-0.699-9.853-4.724c-4.76-13.532-6.934-27.732-6.464-42.206c1.978-60.823,51.172-110.016,111.994-111.994
	c25.635-0.83,50.198,6.581,71.021,21.442c5.543,3.956,9.046,10.122,9.61,16.917c0.566,6.812-1.882,13.489-6.714,18.322
	c-8.023,8.024-20.59,9.051-29.881,2.443c-12.746-9.064-27.778-13.47-43.469-12.752c-35.485,1.631-64.558,30.706-66.19,66.189
	c-0.54,11.738,2.726,25.579,8.74,37.074c1.521,2.45,4.421,4.266,7.438,4.645c1.582,0.198,3.822,0.085,5.491-1.581
	c2.515-2.516,3.057-6.31,1.317-9.226c-5.858-9.818-8.412-21.075-7.388-32.557c2.32-26.042,22.906-46.628,48.949-48.948
	c6.309-0.564,13.864,0.458,18.833,1.602l0.301,0.075c8.037,2.191,14.112,8.307,16.251,16.361c2.14,8.057-0.101,16.385-5.994,22.278
	l-0.115,0.115c-5.807,5.806-14.203,8.026-22.455,5.942c-0.946-0.239-1.939-0.297-2.948-0.169c-3.404,0.43-6.187,3.212-6.617,6.617
	c-0.306,2.431,0.495,4.804,2.197,6.506c3.017,3.017,3.017,7.91,0,10.926c-3.017,3.017-7.91,3.017-10.926,0
	c-5.104-5.104-7.51-12.161-6.602-19.364c1.32-10.467,9.551-18.698,20.016-20.016c2.931-0.369,5.845-0.194,8.666,0.518
	c2.929,0.739,5.822,0.034,7.743-1.886l0.115-0.115c2.814-2.814,2.326-6.102,1.985-7.384c-0.336-1.266-1.517-4.303-5.249-5.383
	c-3.805-0.858-9.691-1.599-13.828-1.231c-18.285,1.63-33.301,16.646-34.929,34.928c-0.732,8.219,1.089,16.264,5.267,23.268
	c5.37,9.002,3.865,20.544-3.66,28.07C246.038,256.285,240.571,258.461,234.711,258.461z"/>
<path style="fill:#FCF1BA;" d="M272.517,276.57c30.173,30.173,30.173,79.094,0,109.267s-79.094,30.173-109.267,0
	s-52.027-100.947-21.853-131.12S242.344,246.397,272.517,276.57z"/>
<path style="fill:#D9B43A;" d="M250.664,363.984c-18.075,18.075-47.485,18.075-65.561,0c-18.075-18.075-18.075-47.485,0-65.561
	c18.075-18.075,47.485-18.075,65.561,0C268.738,316.498,268.738,345.908,250.664,363.984z"/>
<circle style="fill:#A7A951;" cx="378.076" cy="166.024" r="7.726"/>
<g>
	<path style="fill:#C4C65A;" d="M397.104,343.414l-10.302-10.302c-3.017-3.017-7.91-3.017-10.926,0
		c-3.017,3.017-3.017,7.91,0,10.926l10.302,10.302c1.508,1.508,3.486,2.263,5.463,2.263s3.955-0.754,5.463-2.263
		C400.121,351.324,400.121,346.431,397.104,343.414z"/>
	<path style="fill:#C4C65A;" d="M299.237,394.923c-3.017-3.017-7.91-3.017-10.926,0c-3.017,3.017-3.017,7.91,0,10.926l10.302,10.302
		c1.508,1.508,3.486,2.263,5.463,2.263s3.955-0.754,5.463-2.263c3.017-3.017,3.017-7.91,0-10.926L299.237,394.923z"/>
</g>
<g>
	<circle style="fill:#A7A951;" cx="326.567" cy="392.664" r="7.726"/>
	<circle style="fill:#A7A951;" cx="357.473" cy="372.06" r="7.726"/>
</g>
<path style="fill:#C4C65A;" d="M105.251,325.698c-1.977,0-3.955-0.754-5.463-2.263l-10.302-10.302c-3.017-3.017-3.017-7.91,0-10.926
	c3.017-3.017,7.91-3.017,10.926,0l10.302,10.302c3.017,3.017,3.017,7.91,0,10.926C109.204,324.944,107.227,325.698,105.251,325.698z
	"/>
<g>
	<circle style="fill:#A7A951;" cx="130.833" cy="217.533" r="7.726"/>
	<circle style="fill:#A7A951;" cx="87.565" cy="234.016" r="7.726"/>
	<circle style="fill:#A7A951;" cx="97.867" cy="275.223" r="7.726"/>
</g>
<path style="fill:#C4C65A;" d="M115.625,196.925h-14.569c-4.267,0-7.726-3.459-7.726-7.726c0-4.267,3.459-7.726,7.726-7.726h14.569
	c4.267,0,7.726,3.459,7.726,7.726C123.352,193.466,119.892,196.925,115.625,196.925z"/>
<g>
</g>
<g>
</g>
<g>
</g>
<g>
</g>
<g>
</g>
<g>
</g>
<g>
</g>
<g>
</g>
<g>
</g>
<g>
</g>
<g>
</g>
<g>
</g>
<g>
</g>
<g>
</g>
<g>
</g>
</svg>
