<svg height="512pt" viewBox="0 -14 512 512" width="512pt" xmlns="http://www.w3.org/2000/svg"><path d="m198.019531 194.988281h-133.597656c-11.160156-11-19.621094-23.058593-25.25-36.027343-6.261719-14.410157-9.320313-30.699219-9.101563-48.402344.609376-51.480469 28.507813-99.207032 29.699219-101.207032l5.539063-9.351562 10.613281 2.339844c1.25.28125 30.878906 6.960937 61.589844 24.238281 30.207031 16.992187 50.976562 38.171875 61.726562 62.941406 1.152344 2.660157 2.203125 5.390625 3.121094 8.121094.269531.789063.519531 1.550781.742187 2.300781 10.328126 33.117188 3.539063 68.859375-5.082031 95.046875zm0 0" fill="#009100"/><path d="m198.019531 194.988281h-47.871093l-84.839844-194.988281 10.613281 2.339844c1.25.28125 30.878906 6.960937 61.589844 24.238281 30.207031 16.992187 50.976562 38.171875 61.726562 62.941406 1.152344 2.660157 2.203125 5.390625 3.121094 8.121094.269531.789063.519531 1.550781.742187 2.300781 10.328126 33.117188 3.539063 68.859375-5.082031 95.046875zm0 0" fill="#008300"/><path d="m297.488281 79.851562c0 34.910157-28.398437 63.308594-63.308593 63.308594-34.898438 0-63.300782-28.398437-63.300782-63.308594 0-34.910156 28.402344-63.3125 63.300782-63.3125 34.910156 0 63.308593 28.402344 63.308593 63.3125zm0 0" fill="#ff633d"/><path d="m297.488281 79.851562c0 34.910157-28.398437 63.308594-63.308593 63.308594v-126.621094c34.910156 0 63.308593 28.402344 63.308593 63.3125zm0 0" fill="#e70021"/><path d="m384.539062 77.480469c0 35.621093-28.980468 64.589843-64.597656 64.589843-35.621094 0-64.601562-28.96875-64.601562-64.589843 0-35.621094 28.980468-64.601563 64.601562-64.601563 35.617188 0 64.597656 28.980469 64.597656 64.601563zm0 0" fill="#ff633d"/><path d="m384.539062 77.480469c0 35.621093-28.980468 64.589843-64.597656 64.589843v-129.191406c35.617188 0 64.597656 28.980469 64.597656 64.601563zm0 0" fill="#e70021"/><path d="m477.214844 183.507812c.636718-3.195312 1.03125-6.441406 1.15625-9.710937 1.191406-30.699219-20.269532-57.117187-49.449219-63.097656-8.679687-22.8125-30.5-39.03125-55.558594-40.011719-1.28125-.050781-2.5625-.058594-3.832031-.03125-23.539062.5625-44.757812 14.691406-54.648438 35.632812-15.402343 1.96875-29.769531 9.71875-39.839843 21.777344l-.550781.671875c-8.488282 10.449219-13.261719 23.109375-13.789063 36.609375-.238281 6.199219.445313 12.273438 2 18.160156zm0 0" fill="#6ecd24"/><path d="m477.214844 183.507812c.636718-3.195312 1.03125-6.441406 1.15625-9.710937 1.191406-30.699219-20.269532-57.117187-49.449219-63.097656-8.679687-22.8125-30.5-39.03125-55.558594-40.011719-1.28125-.050781-2.5625-.058594-3.832031-.03125v112.851562zm0 0" fill="#66bd21"/><path d="m380.082031 193.988281c.636719-3.195312 1.03125-6.4375 1.15625-9.707031 1.191407-30.703125-20.269531-57.121094-49.449219-63.101562-8.679687-22.808594-30.5-39.03125-55.558593-40.007813-1.28125-.050781-2.558594-.0625-3.832031-.03125-23.539063.558594-44.757813 14.6875-54.648438 35.628906-15.398438 1.96875-29.769531 9.71875-39.839844 21.78125l-.550781.667969c-8.488281 10.453125-13.257813 23.109375-13.789063 36.609375-.238281 6.203125.445313 12.277344 2 18.160156zm0 0" fill="#6ecd24"/><path d="m380.082031 193.988281c.636719-3.195312 1.03125-6.4375 1.15625-9.707031 1.191407-30.703125-20.269531-57.121094-49.449219-63.101562-8.679687-22.808594-30.5-39.03125-55.558593-40.007813-1.28125-.050781-2.558594-.0625-3.832031-.03125v112.847656zm0 0" fill="#66bd21"/><path d="m512 180.378906v15c0 15.949219-1.46875 31.761719-4.378906 47.261719-1.902344 10.160156-4.410156 20.167969-7.519532 30-6.460937 20.460937-15.511718 40.109375-27.011718 58.46875-24.75 39.511719-59.78125 71.53125-101.28125 92.621094l-3.199219 1.628906h-225.21875l-3.199219-1.628906c-41.5-21.089844-76.53125-53.109375-101.28125-92.621094-11.5-18.359375-20.550781-38.007813-27.011718-58.46875-3.109376-9.832031-5.617188-19.839844-7.519532-30-2.910156-15.5-4.378906-31.3125-4.378906-47.261719v-15zm0 0" fill="#ff633d"/><path d="m507.621094 242.640625c-1.902344 10.160156-4.410156 20.167969-7.519532 30h-488.203124c-3.109376-9.832031-5.617188-19.839844-7.519532-30zm0 0" fill="#ffc473"/><path d="m131.988281 419.410156h248.023438v64.578125h-248.023438zm0 0" fill="#ffc473"/><path d="m512 180.378906v15c0 15.949219-1.46875 31.761719-4.378906 47.261719-1.902344 10.160156-4.410156 20.167969-7.519532 30-6.460937 20.460937-15.511718 40.109375-27.011718 58.46875-24.75 39.511719-59.78125 71.53125-101.28125 92.621094l-3.199219 1.628906h-113.269531v-244.980469zm0 0" fill="#e70021"/><g fill="#ffb74f"><path d="m255.339844 419.410156h124.671875v64.578125h-124.671875zm0 0"/><path d="m507.621094 242.640625c-1.902344 10.160156-4.410156 20.167969-7.519532 30h-244.761718v-30zm0 0"/></g></svg>