<svg height="512pt" viewBox="0 -12 512 511" width="512pt" xmlns="http://www.w3.org/2000/svg"><path d="m512 252.40625c0 95.773438-77.921875 173.691406-173.691406 173.691406v-30c33.140625 0 60.089844-26.960937 60.089844-60.089844 0-2.160156-.117188-4.300781-.339844-6.410156-1.097656-10.371094-4.859375-19.960937-10.570313-28.078125-9.367187-13.320312-24-22.671875-40.859375-25.023437-2.71875-.367188-5.5-.566406-8.320312-.566406h-155.277344l-.460938-.03125c-.308593-.019532-1.960937-.128907-4.671874-.480469-13.019532-1.691407-46.679688-8.378907-77.839844-33.929688-17.957032-14.71875-32.136719-33.351562-42.148438-55.378906-1.199218-2.632813-2.332031-5.300781-3.410156-8.03125-9.628906-24.390625-14.5-52.71875-14.5-84.351563v-15h298.308594c6.082031 0 12.082031.3125 18 .929688 10.8125 1.113281 21.332031 3.230469 31.460937 6.242188 39.121094 11.640624 72.5 36.710937 94.789063 69.859374 0 0 .011718 0 .011718.011719 10.667969 15.867188 18.789063 33.597657 23.757813 52.578125 3.703125 14.070313 5.671875 28.839844 5.671875 44.058594zm0 0" fill="#ff633d"/><path d="m55 108.726562h-.886719c-29.839843 0-54.113281-24.277343-54.113281-54.113281 0-29.839843 24.273438-54.113281 54.113281-54.113281h230.886719v30h-230.886719c-13.296875 0-24.113281 10.816406-24.113281 24.113281 0 13.292969 10.816406 24.113281 24.113281 24.113281h.886719zm0 0" fill="#ff633d"/><path d="m0 124.5h55v30h-55zm0 0" fill="#ff633d"/><path d="m159 119.914062h30v30h-30zm0 0" fill="#f0e7df"/><path d="m440.25 305.859375c0 18.308594-4.859375 35.929687-13.671875 51.277344-8.808594 15.351562-21.566406 28.441406-37.378906 37.671875l-27.878907 16.289062h-23.011718v-15c33.140625 0 60.089844-26.960937 60.089844-60.089844 0-2.160156-.117188-4.300781-.339844-6.410156-1.097656-10.371094-4.859375-19.960937-10.570313-28.078125-9.367187-13.320312-24-22.671875-40.859375-25.023437-2.71875-.367188-5.5-.566406-8.320312-.566406h-155.277344l-.460938-.03125c-.308593-.019532-1.960937-.128907-4.671874-.480469-13.019532-1.691407-46.679688-8.378907-77.839844-33.929688-17.957032-14.71875-32.136719-33.351562-42.148438-55.378906-1.199218-2.632813-2.332031-5.300781-3.410156-8.03125h257.96875c70.570312 0 127.78125 57.210937 127.78125 127.78125zm0 0" fill="#e70021"/><path d="m264.859375 178.078125c-.769531 28.628906-8.269531 62.011719-28.910156 97.851563h-35.390625c21.953125-32.203126 33.460937-64.960938 34.421875-97.851563.429687-14.070313-1.082031-28.171875-4.53125-42.25-7.179688-29.339844-21.027344-49.988281-26.300781-57.101563h35.632812c6.769531 12 14.367188 28.472657 19.4375 48.5 3.621094 14.3125 6.160156 31.492188 5.640625 50.851563zm0 0" fill="#ffb74d"/><path d="m390.558594 141.6875c-.847656 19.761719-3.667969 38.839844-8.410156 57.039062-7.339844 28.269532-19.277344 54.429688-35.519532 77.769532-2.71875-.367188-5.5-.566406-8.320312-.566406h-29.128906c24.980468-29.050782 38.511718-60.902344 45.359374-90.773438 10.382813-45.25 5.441407-85.957031 1.769532-105.5 10.8125 1.113281 21.332031 3.230469 31.460937 6.242188 2.070313 14.371093 3.742188 33.667968 2.789063 55.789062zm0 0" fill="#ffb74d"/><path d="m506.328125 208.347656c-1.207031 4.699219-2.648437 9.539063-4.339844 14.46875-9.007812 26.171875-26.757812 58.230469-61.738281 83.621094-11.941406 8.671875-25.890625 16.550781-42.191406 23.160156-1.097656-10.371094-4.859375-19.960937-10.570313-28.078125 18.730469-7.660156 34.800781-17.621093 48.140625-29.820312 17.292969-15.8125 29.992188-35.402344 37.992188-58.640625 8.480468-24.652344 9.21875-46.691406 8.949218-57.289063 10.667969 15.867188 18.789063 33.597657 23.757813 52.578125zm0 0" fill="#ffb74d"/><g fill="#ff9a00"><path d="m234.980469 178.078125h29.878906c-.769531 28.628906-8.269531 62.011719-28.910156 97.851563h-35.390625c21.953125-32.203126 33.460937-64.960938 34.421875-97.851563zm0 0"/><path d="m354.539062 185.15625c9.800782 3.421875 19.0625 8 27.609376 13.570312-7.339844 28.269532-19.277344 54.429688-35.519532 77.769532-2.71875-.367188-5.5-.566406-8.320312-.566406h-29.128906c24.980468-29.050782 38.511718-60.902344 45.359374-90.773438zm0 0"/><path d="m440.25 305.859375v.578125c-11.941406 8.671875-25.890625 16.550781-42.191406 23.160156-1.097656-10.371094-4.859375-19.960937-10.570313-28.078125 18.730469-7.660156 34.800781-17.621093 48.140625-29.820312 3.011719 10.867187 4.621094 22.328125 4.621094 34.160156zm0 0"/><path d="m361.320312 396.097656v30h-.371093c-3.550781 33.921875-32.308594 60.449219-67.148438 60.449219h-72.980469v-22.929687c0-21.199219 9.820313-40.128907 25.148438-52.519532-15.328125-12.390625-25.148438-31.320312-25.148438-52.519531v-22.929687h72.980469c34.839844 0 63.597657 26.53125 67.148438 60.449218zm0 0"/></g><path d="m361.320312 396.097656v15h-115.351562c-15.328125-12.390625-25.148438-31.320312-25.148438-52.519531v-22.929687h72.980469c34.839844 0 63.597657 26.53125 67.148438 60.449218zm0 0" fill="#ffb74d"/></svg>